<svg width="512" height="512" viewBox="0 0 512 512" xmlns="http://www.w3.org/2000/svg">
  <rect width="512" height="512" rx="115" fill="#1a3a0e"/>
  <path d="M256 105 C318 105 392 151 400 227 C408 295 362 347 256 362 C150 347 104 295 112 227 C120 151 194 105 256 105 Z" fill="#2d5a1b"/>
  <path d="M256 362 C256 295 256 196 256 105" stroke="#4a8a2a" stroke-width="8" stroke-linecap="round" fill="none"/>
  <path d="M256 173 C226 173 193 188 174 211" stroke="#4a8a2a" stroke-width="4" stroke-linecap="round" fill="none" opacity="0.7"/>
  <path d="M256 227 C222 227 189 242 165 268" stroke="#4a8a2a" stroke-width="4" stroke-linecap="round" fill="none" opacity="0.7"/>
  <path d="M256 281 C230 281 206 294 190 313" stroke="#4a8a2a" stroke-width="3" stroke-linecap="round" fill="none" opacity="0.6"/>
  <path d="M256 173 C286 173 319 188 338 211" stroke="#4a8a2a" stroke-width="4" stroke-linecap="round" fill="none" opacity="0.7"/>
  <path d="M256 227 C290 227 323 242 347 268" stroke="#4a8a2a" stroke-width="4" stroke-linecap="round" fill="none" opacity="0.7"/>
  <path d="M256 281 C282 281 306 294 322 313" stroke="#4a8a2a" stroke-width="3" stroke-linecap="round" fill="none" opacity="0.6"/>
  <path d="M256 120 C226 128 188 158 173 199 C191 173 220 138 256 120 Z" fill="#3d7025" opacity="0.6"/>
  <path d="M256 362 L256 418" stroke="#4a8a2a" stroke-width="14" stroke-linecap="round" fill="none"/>
  <path d="M256 418 C240 418 220 426 208 434" stroke="#4a8a2a" stroke-width="6" stroke-linecap="round" fill="none" opacity="0.5"/>
  <path d="M256 418 C272 418 292 426 304 434" stroke="#4a8a2a" stroke-width="6" stroke-linecap="round" fill="none" opacity="0.5"/>
</svg>
